<?xml version="1.0" encoding="UTF-8"?>
<svg id="Layer_1" xmlns="http://www.w3.org/2000/svg" xmlns:xlink="http://www.w3.org/1999/xlink" viewBox="0 0 332 331.18">
  <defs>
    <style>
      .cls-1 {
        fill: url(#New_Gradient_Swatch_copy_11);
      }

      .cls-2 {
        fill: url(#New_Gradient_Swatch_copy_12);
      }

      .cls-3 {
        fill: url(#New_Gradient_Swatch_copy_10);
      }
    </style>
    <linearGradient id="New_Gradient_Swatch_copy_10" data-name="New Gradient Swatch copy 10" x1="52.9" y1="100.09" x2="105.39" y2="100.09" gradientUnits="userSpaceOnUse">
      <stop offset="0" stop-color="#fcc062"/>
      <stop offset="1" stop-color="#c98d2f"/>
    </linearGradient>
    <linearGradient id="New_Gradient_Swatch_copy_12" data-name="New Gradient Swatch copy 12" x1="52.9" y1="222.29" x2="105.39" y2="222.29" gradientUnits="userSpaceOnUse">
      <stop offset="0" stop-color="#f47b50"/>
      <stop offset="1" stop-color="#c1481d"/>
    </linearGradient>
    <linearGradient id="New_Gradient_Swatch_copy_11" data-name="New Gradient Swatch copy 11" x1="0" y1="132.42" x2="52.49" y2="132.42" gradientUnits="userSpaceOnUse">
      <stop offset="0" stop-color="#f89d59"/>
      <stop offset="1" stop-color="#c56a26"/>
    </linearGradient>
  </defs>
  <g>
    <path d="M332,219.41c-3.24,1.64-213.09,111.49-213.71,111.77V34.62c1.68.86,209.66,109.82,213.15,111.65.17.09.37.1.56.15v.3c-5.81,3.06-67.93,35.61-69.04,36.17.83.48,60,31.47,69.04,36.21v.3ZM225.52,219.19c-18.11-9.49-35.9-18.82-53.76-28.18v56.36c17.91-9.39,35.67-18.7,53.76-28.18ZM171.68,174.88c18.01-9.44,35.79-18.76,53.83-28.22-18.12-9.5-35.91-18.82-53.83-28.21v56.43Z"/>
    <path d="M52.58,47.66V0c1.93,1.02,3.62,1.89,5.28,2.8,7.46,4.08,14.92,8.16,22.37,12.26,4.88,2.69,9.74,5.41,14.62,8.11,3.14,1.73,6.31,3.41,9.41,5.2.48.28.96,1.04.96,1.58.05,15.26.04,30.53.04,45.79,0,.2-.03.39-.07.83-17.48-9.59-34.86-19.13-52.43-28.78"/>
    <path d="M52.75,47.79c-.03.6-.06.92-.06,1.25,0,24.47,0,48.94,0,73.42,0,.25.03.5.05.75l.03-.04c-2.24-1.17-4.51-2.3-6.73-3.51-8.56-4.68-17.11-9.37-25.66-14.07-4.93-2.71-9.84-5.46-14.76-8.19-1.35-.75-2.63-1.68-4.06-2.2-1.26-.46-1.47-1.17-1.47-2.35.03-18.57.02-37.13.02-55.7,0-5.45,0-10.91,0-16.36,0-.53,0-1.07,0-1.92,17.59,9.65,34.94,19.18,52.47,28.8l.17.13Z"/>
    <path d="M52.58,0c1.93,1.02,3.62,1.89,5.28,2.8,7.46,4.08,14.92,8.16,22.37,12.26,4.88,2.69,9.74,5.41,14.62,8.11,3.14,1.73,6.31,3.41,9.41,5.2.48.28.96,1.04.96,1.58.05,15.26.04,30.53.04,45.79,0,.2-.03.39-.07.83"/>
    <path d="M52.85,244.6c4.94,2.58,11,5.96,15.89,8.64,6.99,3.83,14,7.62,20.99,11.44,3.63,1.98,7.23,4,10.85,6.01.39.22.75.56,1.16.67,3.24.86,3.62,3.1,3.58,6.1-.15,13.91-.07,27.83-.07,41.74v1.8c-2.49-1.35-4.8-2.58-7.09-3.84-8.51-4.65-17.02-9.31-25.52-13.98-4.89-2.68-9.75-5.4-14.63-8.11-1.35-.75-2.63-1.67-4.05-2.21-1.14-.44-1.3-1.07-1.3-2.12.03-11.81.02-23.62.02-35.44,0-2.85-.06-5.71.03-8.56l.14-2.15Z"/>
    <path d="M52.57,244.81c-5.93-3.16-12.99-6.82-18.89-10.04-3.72-2.03-7.41-4.12-11.12-6.16-7.16-3.92-14.32-7.84-21.49-11.73-.7-.38-.97-.81-.97-1.63.02-24.02.02-48.05.02-72.07,0-.24.04-.47.08-.9,1.79.94,3.46,1.78,5.1,2.69,6.06,3.35,12.1,6.73,18.16,10.07,7.63,4.21,15.27,8.39,22.9,12.58,2.1,1.15,4.2,2.28,6.31,3.43.02.04.05.09.07.14-.01,2.65-.04,5.3-.04,7.96,0,21.22,0,42.44-.02,63.66l-.1,2.02Z"/>
    <path d="M52.74,123.21c4.62,2.54,9.24,5.08,13.86,7.62,2.49,1.37,4.97,2.74,7.45,4.11,7.46,4.09,14.93,8.18,22.39,12.28,2.62,1.44,5.24,2.87,7.81,4.4.48.29.96,1.04.96,1.58.05,15.31.04,30.63.04,45.94,0,.19-.04.38-.07.72-2.39-1.29-4.7-2.53-6.99-3.78-8.52-4.66-17.04-9.32-25.55-13.99-4.67-2.56-9.32-5.16-13.99-7.73-1.96-1.08-3.94-2.12-5.91-3.18-.02-.05-.05-.09-.07-.14,0-15.26,0-30.51.02-45.77,0-.7.05-1.4.09-2.1,0,0-.03.04-.03.04Z"/>
  </g>
  <path class="cls-3" d="M105.39,76.83c-17.48-9.59-34.91-19.13-52.49-28.78,0,0,0,50.56,0,75.03l52.33,29.04.15-75.29Z"/>
  <path class="cls-2" d="M105.39,200.01c-17.48-9.59-34.91-19.13-52.49-28.78,0,0,0,48.59,0,73.06l52.33,29.04.15-73.33Z"/>
  <path class="cls-1" d="M52.49,122.83C35.01,113.24,17.58,103.7,0,94.06c0,0,0,23.21,0,47.68l52.33,29.04.15-47.95Z"/>
</svg>